<?xml version="1.0" encoding="UTF-8" standalone="no"?>
<!-- Created with Inkscape (http://www.inkscape.org/) -->

<svg
   width="48"
   height="48"
   viewBox="0 0 48 48"
   version="1.1"
   id="svg1"
   xmlns="http://www.w3.org/2000/svg"
   xmlns:svg="http://www.w3.org/2000/svg">
  <defs
     id="defs1">
    <clipPath
       clipPathUnits="userSpaceOnUse"
       id="clipPath226-6">
      <path
         d="M 0,500 H 500 V 0 H 0 Z"
         transform="translate(-248.63963,-169.0781)"
         id="path226-2" />
    </clipPath>
    <clipPath
       clipPathUnits="userSpaceOnUse"
       id="clipPath216-6">
      <path
         d="M 0,500 H 500 V 0 H 0 Z"
         transform="translate(-123.83108,-169.0781)"
         id="path216-1" />
    </clipPath>
  </defs>
  <g
     id="layer1">
    <rect
       style="fill:#cdeaf9;fill-opacity:1;stroke:#33425b;stroke-width:0.978395;stroke-opacity:1"
       id="rect1"
       width="46.768398"
       height="46.917164"
       x="0.56595904"
       y="0.628506"
       ry="4.9276996" />
    <path
       id="path215"
       d="M 0,0 C -0.576,0 -1.056,0.193 -1.444,0.581 -1.832,0.97 -2.025,1.449 -2.025,2.023 V 31.61 c 0,0.606 0.193,1.093 0.581,1.466 0.388,0.372 0.868,0.561 1.444,0.561 0.803,0 1.405,-0.361 1.807,-1.077 L 15.675,4.867 H 14.254 L 27.82,32.56 c 0.431,0.716 1.035,1.077 1.81,1.077 0.573,0 1.056,-0.189 1.441,-0.561 0.389,-0.373 0.581,-0.86 0.581,-1.466 V 2.023 C 31.652,1.449 31.452,0.97 31.05,0.581 30.648,0.193 30.175,0 29.63,0 29.056,0 28.574,0.193 28.187,0.581 27.8,0.97 27.604,1.449 27.604,2.023 V 26.142 L 28.381,26.228 16.58,2.111 c -0.431,-0.69 -1.019,-1.034 -1.766,-1.034 -0.862,0 -1.48,0.417 -1.853,1.248 L 1.163,25.928 2.023,26.142 V 2.023 C 2.023,1.449 1.83,0.97 1.441,0.581 1.054,0.193 0.573,0 0,0"
       style="fill:#f33535;fill-opacity:1;fill-rule:nonzero;stroke:none"
       transform="matrix(0.69358261,0,0,-0.85794578,5.8204147,38.429361)"
       clip-path="url(#clipPath216-6)" />
    <path
       id="path225"
       d="M 0,0 C -0.548,0 -1.02,0.193 -1.421,0.581 -1.825,0.97 -2.026,1.449 -2.026,2.023 V 31.61 c 0,0.606 0.196,1.093 0.582,1.466 0.387,0.372 0.868,0.561 1.444,0.561 h 19.768 c 0.601,0 1.082,-0.181 1.441,-0.54 0.359,-0.36 0.539,-0.825 0.539,-1.401 0,-0.515 -0.18,-0.954 -0.539,-1.31 -0.359,-0.361 -0.84,-0.54 -1.441,-0.54 H 2.022 V 18.821 h 12.792 c 0.602,0 1.09,-0.179 1.465,-0.539 0.373,-0.36 0.558,-0.811 0.558,-1.355 0,-0.548 -0.185,-0.999 -0.558,-1.359 -0.375,-0.36 -0.863,-0.537 -1.465,-0.537 H 2.022 V 2.023 C 2.022,1.449 1.829,0.97 1.441,0.581 1.056,0.193 0.573,0 0,0"
       style="fill:#f33535 icc-color(sRGB-IEC61966-2, 0.1, 0.95298767, 0.20799255, 0.20799255);fill-opacity:1;fill-rule:nonzero;stroke:none"
       transform="matrix(0.69358261,0,0,-0.85794578,29.854285,38.429361)"
       clip-path="url(#clipPath226-6)" />
  </g>
</svg>
