<?xml version="1.0" encoding="UTF-8" standalone="no"?>
<!-- Created with Inkscape (http://www.inkscape.org/) -->

<svg
   width="1920"
   height="1080"
   viewBox="0 0 1920 1080"
   version="1.1"
   id="svg1"
   xml:space="preserve"
   xmlns:xlink="http://www.w3.org/1999/xlink"
   xmlns="http://www.w3.org/2000/svg"
   xmlns:svg="http://www.w3.org/2000/svg"><defs
     id="defs1"><linearGradient
       id="linearGradient28"><stop
         style="stop-color:#ee9b1f;stop-opacity:1;"
         offset="0.65954107"
         id="stop29" /><stop
         style="stop-color:#ee9b1f;stop-opacity:0;"
         offset="1"
         id="stop30" /></linearGradient><linearGradient
       id="linearGradient39"><stop
         style="stop-color:#f0e686;stop-opacity:1;"
         offset="0"
         id="stop39" /><stop
         style="stop-color:#9cd7fb;stop-opacity:1;"
         offset="1"
         id="stop40" /></linearGradient><radialGradient
       xlink:href="#linearGradient41-1"
       id="radialGradient42-9"
       cx="3311.7249"
       cy="65.961693"
       fx="3311.7249"
       fy="65.961693"
       r="977.54828"
       gradientTransform="matrix(-0.01473828,0.11202003,-0.70186576,0.01093974,5935.0584,520.07277)"
       gradientUnits="userSpaceOnUse" /><linearGradient
       id="linearGradient41-1"><stop
         style="stop-color:#cada59;stop-opacity:1;"
         offset="0.11752008"
         id="stop41-7" /><stop
         style="stop-color:#4fad4a;stop-opacity:1;"
         offset="1"
         id="stop42-7" /></linearGradient><radialGradient
       xlink:href="#linearGradient28"
       id="radialGradient30-1"
       cx="1427.8621"
       cy="656.40948"
       fx="1427.8621"
       fy="656.40948"
       r="110.45013"
       gradientUnits="userSpaceOnUse" /><filter
       style="color-interpolation-filters:sRGB"
       id="filter23-9"
       x="-0.19829886"
       y="-0.19829886"
       width="1.3965977"
       height="1.3965977"><feGaussianBlur
         stdDeviation="0.61091958"
         id="feGaussianBlur23-7" /></filter><linearGradient
       xlink:href="#linearGradient35-6"
       id="linearGradient36-7"
       x1="524.67554"
       y1="500.70059"
       x2="1712.5548"
       y2="658.2691"
       gradientUnits="userSpaceOnUse"
       gradientTransform="translate(4114.2347,188.67139)" /><linearGradient
       id="linearGradient35-6"><stop
         style="stop-color:#867167;stop-opacity:1;"
         offset="0"
         id="stop35-7" /><stop
         style="stop-color:#dfccb0;stop-opacity:1;"
         offset="1"
         id="stop36-3" /></linearGradient><radialGradient
       xlink:href="#linearGradient39"
       id="radialGradient43-65"
       cx="812.0708"
       cy="-1167.9202"
       fx="812.0708"
       fy="-1167.9202"
       r="1038.479"
       gradientTransform="matrix(-0.39343457,-0.55169094,0.46335275,-0.40334556,6666.2765,816.10433)"
       gradientUnits="userSpaceOnUse" /></defs><g
     id="g21"
     transform="translate(-4105.6757,-6.3633241)"><rect
       style="fill:url(#radialGradient43-65);fill-opacity:1;stroke-width:1.14786"
       id="rect17-8"
       width="1920"
       height="896.69836"
       x="4105.6758"
       y="6.3633242" /><path
       style="fill:url(#linearGradient36-7);stroke:none;stroke-width:91.68;stroke-linejoin:bevel;stroke-dasharray:none;stroke-dashoffset:0;stroke-opacity:1;paint-order:markers stroke fill"
       d="m 4105.4974,690.6485 c 108.7603,42.66904 179.4469,-31.30497 616.7359,84.97647 196.1939,-14.82674 327.505,28.52258 501.7643,67.36816 282.1169,6.4547 419.017,55.1179 419.017,55.1179 l -1537.0091,2.27535 z"
       id="path34-1" /><circle
       style="display:inline;mix-blend-mode:normal;fill:#f5ea37;fill-opacity:1;stroke:url(#radialGradient30-1);stroke-width:72.783;stroke-linejoin:bevel;stroke-dasharray:none;stroke-dashoffset:0;stroke-opacity:1;paint-order:markers stroke fill;filter:url(#filter23-9)"
       id="path18-2"
       cx="1427.8621"
       cy="656.40948"
       r="95.456184"
       transform="matrix(1.1142128,0,0,1.1142128,4257.0379,107.7981)" /><rect
       style="display:inline;fill:url(#radialGradient42-9);fill-opacity:1;stroke-width:0.551006"
       id="rect16-9"
       width="1920"
       height="194.95183"
       x="4105.6758"
       y="891.55334" /><g
       id="g2"
       transform="matrix(0.43128282,0,0,0.43128282,4165.7964,708.99798)">
	<path
   d="m 65.957606,634.0399 c 10.11605,-15.66753 33.43229,-27.63407 36.639814,-28.86773 9.37585,-3.82436 18.13486,-2.09723 26.03031,3.57762 5.18138,3.70099 11.10297,5.55149 16.53109,8.63565 2.22059,1.23366 7.27861,-0.24673 10.73287,4.31782 1.35703,1.72713 2.83743,1.8505 4.56456,1.23367 8.01881,-3.08416 16.53109,-4.68793 24.5499,-7.89545 21.95922,-8.51228 18.62832,-1.97386 60.69625,-15.0507 129.16459,-40.21743 72.41606,-36.51644 208.85926,-32.07525 86.84991,2.83742 133.97587,-20.97228 202.19746,-32.93882 59.46259,-10.48614 99.92676,-12.95347 107.45211,-28.621 6.78515,-14.06376 36.82924,-38.73834 56.18695,-46.3027 l 45.06011,-8.46768 c -18.17676,5.83552 -0.70348,1.47611 6.45177,-4.07537 3.57762,-2.71406 12.33664,0.7402 20.23208,-2.96079 24.67328,-11.47308 26.89387,13.2002 86.84988,-44.53526 0.8636,-0.7402 0.6169,-9.86931 3.0842,-12.8301 21.71248,-25.78357 31.45838,-107.4521 30.96498,-110.0428 -0.6169,-3.33089 3.2075,-3.70099 -2.7141,-19.12178 -13.81698,-36.39308 3.701,-81.66854 21.0956,-116.58122 13.8171,-27.8808 27.8808,-21.09564 24.55,-35.89961 -1.1103,-4.93465 0,-11.349704 -5.3048,-19.61525 -5.058,-7.772081 -13.6937,2.220595 -39.6006,-3.454258 -16.90118,-3.700991 -30.22478,-14.187132 -35.15938,-19.615252 -14.0638,-15.420795 -15.7909,-30.224759 -16.161,-30.718224 -5.4281,-11.473072 -0.9869,-23.4396091 -2.0972,-37.3800084 -0.4935,-5.5514856 -2.2206,-5.1813866 -6.1684,-10.3627736 -4.5645,-5.921586 -7.772,0.493465 -10.23936,-0.123367 -3.57763,-0.740198 -4.93466,1.603763 -6.29169,4.194457 -4.07109,7.7720806 -6.66178,15.9142596 -6.41505,24.796638 0.49347,16.407727 -1.4804,10.85624 2.59069,43.918426 1.1103,9.499209 3.70099,26.893867 7.27862,35.406146 4.56455,10.732876 -0.49347,8.759006 7.77209,27.757436 4.4412,10.36277 0.2467,4.68792 10.4861,25.78356 7.402,15.29743 11.4731,27.5107 20.1087,38.24358 4.1945,5.18138 0.4935,5.92158 4.3179,9.62257 0.7402,0.7402 1.6037,1.8505 0.8635,2.71406 -1.8505,2.46733 -0.4934,4.68793 0.2468,6.78515 2.5907,7.77208 8.1421,28.49763 11.3497,33.92575 1.9738,3.20753 1.357,3.20753 -1.6038,5.92159 -1.8505,1.72713 -1.9739,0.86356 -2.8374,-0.24673 -5.4281,-7.77209 -4.0711,-10.97961 -6.7852,-11.96654 -2.4673,0.49346 -0.1233,9.62257 -3.0841,17.88812 -1.3571,3.70099 4.1944,14.6806 5.7982,17.27129 -2.344,3.20753 -10.2394,-6.04495 -12.7067,-10.73287 -12.3367,-23.06951 0.9869,-4.44119 -17.6414,-23.06951 -2.9608,4.31782 5.3047,21.21901 2.2206,39.84733 -1.6038,9.62258 -3.8244,19.73862 -9.8693,28.12753 -2.5907,3.57763 -2.344,8.63565 -6.29173,11.71981 -1.60376,-4.44119 1.35703,-8.75901 0.12337,-14.06377 -2.83743,3.94773 -4.81129,7.52535 -6.53842,12.46001 -0.98693,-13.07684 5.92158,-16.28436 2.83743,-20.72555 -3.3309,-4.68792 -0.49347,-10.97961 -2.83743,-12.95347 -1.4804,0.24673 -1.35703,2.09723 -2.2206,2.96079 -1.11029,0.98693 -2.71406,-0.24673 -3.94772,0.49347 -0.12337,3.08416 1.35703,6.41505 -0.24673,8.75901 -1.60376,2.46733 -2.96079,10.36277 -2.71406,13.32357 0.49346,5.79822 -0.86357,11.3497 -1.4804,17.02455 -0.3701,2.83743 -0.61683,7.64872 -5.67485,8.26555 -1.72713,-2.34396 0.7402,-5.92158 -1.72713,-8.63564 -1.8505,2.96079 -3.94772,5.55148 -7.03188,7.77208 -1.4804,-3.08416 -3.82436,-5.67486 -2.9608,-9.62258 0.49347,-2.34396 0.7402,-4.81129 -1.23366,-6.90852 -1.4804,-1.60376 0,-3.70099 -0.98693,-5.42812 -1.60376,-0.98693 -2.09723,1.4804 -3.94772,1.23367 -2.09723,-2.9608 3.08416,-9.74595 -0.3701,-11.96654 -1.60377,-0.98693 -2.2206,1.23366 -3.33089,1.23366 -7.40199,-7.77208 3.33089,-10.2394 0.98693,-28.25089 -0.61684,-4.68793 -3.94773,-4.44119 -5.05802,-17.64139 -0.12337,-1.4804 0.86356,-3.57763 -2.46733,-2.9608 -1.1103,0.24674 -1.60376,-2.46732 -1.23367,-3.82435 1.1103,-3.94773 0.3701,-7.89545 0,-11.84317 -0.24673,-1.72713 0.49347,-3.45426 -1.48039,-4.68793 -0.61683,-0.37009 -0.61683,-1.11029 -0.3701,-1.85049 1.60376,-4.31782 -12.0899,-52.67744 -9.62258,-71.05903 4.68792,-36.02297 1.97387,-28.99109 5.18139,-71.305754 2.22059,-28.497629 -1.1103,-27.634065 1.4804,-37.62674 3.94772,-15.050696 2.83742,-32.075255 5.92158,-47.6194164 -1.23366,0.370099 -2.46733,0.616832 -3.70099,0.986931 0.3701,-0.123366 6.04495,-7.525348 6.90852,-8.3889126 5.55148,-5.304753 11.47307,-10.239408 17.14792,-15.420795 3.33089,-3.084159 16.65446,-6.168318 18.13486,-8.512279 1.11029,-1.850496 -0.7402,-2.837426 -1.23367,-4.194456 -1.23366,-3.577625 4.19446,-5.921586 -4.68792,-10.732874 -1.85049,-0.986931 -3.57762,-1.973862 -4.07109,-4.564555 3.20753,0.493465 6.29169,0.616831 9.37585,0.370099 0.74019,-2.590694 -0.3701,-4.441189 -2.34397,-6.78515 5.42812,0.863564 1.8505,3.824357 8.88238,12.706735 1.72713,2.097228 0.86357,5.058021 2.2206,7.525348 8.14215,-3.084159 11.22635,-10.362774 12.95345,-17.394657 3.701,-15.297429 12.9535,-27.38733 20.7256,-40.3408 3.5776,-6.044954 9.0057,-10.732874 14.8039,-15.050694 8.8824,-6.66179 13.8171,-16.65446 23.31628,-22.20595 15.2974,-8.88238 35.036,-13.07683 52.554,-10.11604 5.3048,1.1103 6.9086,-9.99267 20.6022,-7.03188 3.701,0.7402 7.2786,1.1103 10.2394,3.70099 -0.4934,0.7402 -0.9869,0.98693 -1.357,0.7402 -3.701,-2.71406 -6.6618,0.61683 -9.9927,1.23366 -2.2206,0.3701 -0.4934,2.83743 -0.7402,3.45426 -1.6037,4.19445 -1.4804,4.07109 1.2337,6.41505 7.0319,5.67485 19.3685,2.46733 36.6398,19.36852 13.6937,13.44693 15.2974,11.3497 15.9143,18.011494 0.7402,7.15525 6.2916,11.22634 10.7328,15.914254 0.8636,0.863565 2.2206,0.863565 3.4543,0.986931 23.8097,3.084159 24.92,1.110297 30.8416,5.42812 15.2974,10.979606 -13.817,19.985351 9.9927,25.413471 12.2132,2.837426 0.7402,12.583369 9.3758,12.953468 1.8505,0.123366 7.8955,4.194456 5.1814,8.882378 -2.0972,3.700991 -1.4804,7.278615 1.9739,9.622576 9.9926,6.661784 9.2524,21.5891126 -1.3571,29.7312931 -11.7198,9.0057449 -16.5311,10.4861409 -27.0172,21.8358459 -8.8824,9.622577 0.3701,15.174063 -2.4673,33.555651 -0.3701,2.590694 -0.2468,5.181387 -0.2468,7.772081 1.3571,56.008327 -31.8285,63.657047 26.8939,171.602607 8.3889,15.4208 9.2525,30.84159 14.804,47.00259 5.7982,17.02456 -1.9739,37.62674 -7.6488,53.66436 -3.9477,11.10298 -2.9607,14.6806 0.2468,26.15367 5.9216,21.09565 8.759,44.0418 13.4469,65.87764 8.6357,40.21744 14.1871,46.38575 3.3309,119.54201 -5.6749,38.61367 -9.9927,70.93565 -7.7721,124.97012 0.1234,1.97386 1.2337,2.71406 2.9608,2.71406 5.4281,-0.12336 10.6095,1.4804 16.0376,0.98693 8.389,-0.7402 8.7591,4.44119 20.4789,6.29169 1.4804,0.24673 48.3596,7.64871 54.2812,7.15525 4.3178,-0.3701 6.9085,2.59069 6.9085,4.68792 0.2467,9.99267 -18.7517,3.33089 -23.8097,7.40198 57.9822,9.12911 60.2028,2.59069 63.5336,8.63564 1.9739,3.57763 7.2787,0.61684 8.0189,6.29169 0.2467,2.09723 -3.5777,5.67485 -6.2917,6.04495 -0.987,0.12337 -2.0973,0.12337 -3.0842,0.12337 -8.8824,0 -3.701,2.22059 -10.9796,1.97386 -9.4992,-0.24673 -18.9984,0.7402 -28.4976,-0.86357 -2.7141,-0.49346 -5.5515,-0.37009 -8.0188,1.23367 -3.4543,2.22059 -44.9054,0.12336 -51.0737,-1.1103 -3.3309,-0.61683 -6.9085,-0.3701 -10.3628,-0.24673 -15.5441,0.49346 -31.0883,-1.72713 -46.6325,-1.1103 -3.9477,0.12337 -7.7721,-1.1103 -11.8431,-1.1103 -9.746,0.12337 -5.0581,-21.34238 -18.9985,-19.73861 -4.8112,0.61683 -9.4992,-1.35703 -14.4338,-1.1103 -2.9608,0.24673 -4.1945,-4.44119 -4.0711,-5.18139 0.8635,-9.25248 -7.8955,-18.13485 -7.5254,-24.92 1.1103,-23.19288 -15.7909,-65.13744 -8.5122,-152.48083 0,-0.61683 2.714,-28.00416 2.3439,-32.44535 -2.3439,-27.1406 0.4935,-28.621 -3.0841,-29.73129 -2.0973,-0.61684 -4.4412,2.59069 -5.4282,4.19445 -9.6225,15.54416 -21.3423,29.3612 -32.0752,44.04179 -25.2901,34.04912 -4.8113,10.48614 -43.0549,56.37843 -5.7982,6.90852 -13.2002,11.96654 -21.3424,16.16099 -2.0972,1.1103 -42.80808,23.31625 -42.80808,23.31625 -13.84808,7.78974 2.99246,-3.06496 -14.21114,7.16833 -23.47049,13.96102 -16.6153,15.11511 -26.86986,18.61524 -1.9738,-1.35703 -3.701,-0.24674 -5.18137,0.98693 -15.66753,12.21327 -49.09981,27.63406 -71.30576,22.20594 -15.91426,-3.82435 -25.41347,6.90852 -64.39724,14.55723 -7.52535,1.4804 -31.21169,7.89545 -80.80497,11.47308 -125.95705,9.12911 -94.86873,-5.30476 -193.31509,-3.3309 -13.44693,0.24674 -45.89228,-3.33089 -46.38575,-3.33089 -1.85049,-0.12336 -6.41505,-2.71406 -8.88238,-2.71406 -5.05802,-0.12336 -9.86931,-1.60376 -14.80396,-1.97386 -70.07209,-4.68792 -16.90119,-1.8505 -122.1327,13.32357 -40.95763,5.92158 -101.90061,5.92158 -144.33864,15.66752 -8.88238,2.09723 -63.04021,11.10298 -63.65705,11.22634 -44.905354,9.25248 35.03605,2.46733 -172.95964,4.81129 -20.232083,0.24673 -18.62832,-12.0899 -14.063765,-17.88812 11.473071,-14.3105 76.857243,-30.96496 93.881801,-40.21743 11.84317,-6.04496 18.50495,-14.43387 25.6602,-25.53684 z"
   id="path1-6"
   style="fill:#33425b;fill-opacity:1;stroke-width:1.23366" />
</g></g></svg>
