<?xml version="1.0" encoding="UTF-8" standalone="no"?>
<!-- Created with Inkscape (http://www.inkscape.org/) -->

<svg
   width="1920"
   height="1080"
   viewBox="0 0 1920 1080"
   version="1.1"
   id="svg1"
   xml:space="preserve"
   xmlns:xlink="http://www.w3.org/1999/xlink"
   xmlns="http://www.w3.org/2000/svg"
   xmlns:svg="http://www.w3.org/2000/svg"><defs
     id="defs1"><radialGradient
       xlink:href="#linearGradient28"
       id="radialGradient30"
       cx="1427.8621"
       cy="656.40948"
       fx="1427.8621"
       fy="656.40948"
       r="110.45013"
       gradientUnits="userSpaceOnUse" /><linearGradient
       id="linearGradient28"><stop
         style="stop-color:#ee9b1f;stop-opacity:1;"
         offset="0.65954107"
         id="stop29" /><stop
         style="stop-color:#ee9b1f;stop-opacity:0;"
         offset="1"
         id="stop30" /></linearGradient><filter
       style="color-interpolation-filters:sRGB"
       id="filter23"
       x="-0.19829886"
       y="-0.19829886"
       width="1.3965977"
       height="1.3965977"><feGaussianBlur
         stdDeviation="0.61091958"
         id="feGaussianBlur23" /></filter><radialGradient
       xlink:href="#linearGradient39"
       id="radialGradient43"
       cx="812.0708"
       cy="-1167.9202"
       fx="812.0708"
       fy="-1167.9202"
       r="1038.479"
       gradientTransform="matrix(-0.39343461,-0.56355176,0.46335279,-0.4120171,2560.6011,827.14965)"
       gradientUnits="userSpaceOnUse" /><linearGradient
       id="linearGradient39"><stop
         style="stop-color:#f0e686;stop-opacity:1;"
         offset="0"
         id="stop39" /><stop
         style="stop-color:#9cd7fb;stop-opacity:1;"
         offset="1"
         id="stop40" /></linearGradient><linearGradient
       xlink:href="#linearGradient35"
       id="linearGradient36"
       x1="524.67554"
       y1="500.70059"
       x2="1712.5548"
       y2="658.2691"
       gradientUnits="userSpaceOnUse"
       gradientTransform="translate(1.2858704,204.44326)" /><linearGradient
       id="linearGradient35"><stop
         style="stop-color:#4f7653;stop-opacity:1;"
         offset="0"
         id="stop35" /><stop
         style="stop-color:#afb696;stop-opacity:1;"
         offset="1"
         id="stop36" /></linearGradient><radialGradient
       xlink:href="#linearGradient41"
       id="radialGradient42"
       cx="3244.1423"
       cy="250.90399"
       fx="3244.1423"
       fy="250.90399"
       r="977.54828"
       gradientTransform="matrix(-0.01843762,0.12199165,-0.73007866,0.02483684,1965.8546,462.30986)"
       gradientUnits="userSpaceOnUse" /><linearGradient
       id="linearGradient41"><stop
         style="stop-color:#f2de81;stop-opacity:1;"
         offset="0.11810656"
         id="stop41" /><stop
         style="stop-color:#4fad4a;stop-opacity:1;"
         offset="1"
         id="stop42" /></linearGradient></defs><g
     id="layer1"
     style="display:inline"><rect
       style="fill:url(#radialGradient43);fill-opacity:1;stroke-width:1.16014"
       id="rect17"
       width="1920"
       height="915.9765"
       x="0"
       y="0" /><path
       style="fill:url(#linearGradient36);stroke:none;stroke-width:91.68;stroke-linejoin:bevel;stroke-dasharray:none;stroke-dashoffset:0;stroke-opacity:1;paint-order:markers stroke fill"
       d="M 0.07226318,709.33633 C 131.70332,762.22953 171.99549,675.1154 609.28444,791.39684 c 196.1939,-14.82674 327.505,28.52258 501.76436,67.36816 282.1169,6.4547 419.017,55.1179 419.017,55.1179 L -0.12303525,947.32945 Z"
       id="path34" /><circle
       style="display:inline;mix-blend-mode:normal;fill:#f5ea37;fill-opacity:1;stroke:url(#radialGradient30);stroke-width:72.783;stroke-linejoin:bevel;stroke-dasharray:none;stroke-dashoffset:0;stroke-opacity:1;paint-order:markers stroke fill;filter:url(#filter23)"
       id="path18"
       cx="1427.8621"
       cy="656.40948"
       r="95.456184"
       transform="matrix(1.1142128,0,0,1.1142128,71.810897,116.79733)" /><rect
       style="display:inline;fill:url(#radialGradient42);fill-opacity:1;stroke-width:0.518108"
       id="rect16"
       width="1920"
       height="172.36794"
       x="0"
       y="907.3252" /><g
       id="g7"
       transform="matrix(-0.91166501,0,0,0.91166501,578.483,356.24247)"
       style="fill:#33425b;fill-opacity:1">
	<path
   d="m 582.3,205.5 c -59.5,-50.4 -34.9,-27.6 -90,-65.2 -19.7,-13.5 -17.2,-15.1 -27.3,-20.4 -4,-2.1 -7.5,-5 -11.6,-6.9 -7.4,-3.5 -8,-6.7 -17.9,-10.2 -22.4,-8 -31.8,-15.6 -38.7,-18.2 -3.6,-1.4 -4.2,1.3 -6.7,-1.2 -5.8,-5.6 -11.8,10.6 0.4,17.5 4.4,2.5 -0.1,1.5 6.5,8.2 2,2 10.3,7.7 11,8 4.2,1.8 7.5,4.9 10.7,8 3.8,3.5 -1.5,23.9 10.3,34.7 2.4,2.2 6.9,2.3 9.1,0 1.1,-1.1 2.2,-1.6 3.5,-2.1 16.7,-6 14.5,-3.6 21.7,2.2 1.5,1.2 0.7,1.6 3.6,4.8 7.1,7.8 17.8,19 25.4,29.5 2,2.8 0.8,3.7 0,3.3 -0.5,-0.2 -25.1,-7.8 -36.1,-8 -5.3,-0.1 -10.5,-1.7 -15.9,-1.6 -2.2,0 -4.5,0.5 -6.6,-0.3 0,0 -1.5,0.3 -5.7,0.3 -7.3,0 -14.4,0.8 -21.4,2.6 -24.2,6.4 -19.6,12 -28.3,7.7 -31.7,-15.9 -36.9,-16.6 -55.6,-26 -20.3,-10.2 -27.7,-17.7 -44.4,-24.3 -20.3,-8.1 -64,-19 -71.6,-21.7 -5.4,-2 -9.6,-5 -14.5,-7.8 C 156,97.6 115.1,85.3 89.5,55.8 87.2,53.1 84,51.3 82.4,47.9 c -0.1,-0.3 -0.5,-0.5 -0.8,-0.6 -2,-0.7 -3,-3.2 -5.4,-3.1 -5.7,-4.4 -30.7,-21 -36.1,-26.6 -2.9,-3 -6,-5.5 -10.4,-5.8 C 27,11.6 24.7,10 22.3,9 12.9,5 10.4,2.1 7.6,0.4 5.4,-0.9 2.8,1.2 2.4,4 1.6,8.7 3.6,8.6 1.5,11 c -2.1,2.5 -2.2,4.7 1.1,7.2 0.1,0 0.1,0.1 0.2,0.1 1.9,0.7 -0.1,1.3 1,4.2 0.5,1.1 1.2,2.1 2.2,2.8 -3.7,4.3 0.9,7 3.8,7.4 -0.3,1.3 -4,1.2 -1.6,4.9 2.1,3.2 4.2,2.7 4.7,5 0.1,0.5 5,7.1 10.9,10 1.5,0.7 7.5,6.5 13.6,11.3 7.8,6.2 5.5,9.8 9.7,16.1 5.4,8.1 10.7,5.9 13.5,6.8 2.8,0.8 8,-0.4 10.3,-1.1 1.3,-0.4 4.8,0.1 4.4,1.4 8.527511,5.741124 10.109141,5.744282 28.5,22 10.7,9.1 32,35.8 73.2,54.7 8.7,4 7.91031,2.74457 12.2,4.8 14.32604,4.93098 29.23233,9.24014 42.4,17 17.4,11.3 22.5,20.1 36.3,31.2 15.2,12.1 47,30.6 53.5,44.9 21.7,47.9 40.3,41.4 44.7,45.9 1.9,1.9 5.2,3.4 7.4,3.3 1.3,-0.1 1.3,-0.1 3.4,0.9 0.5,0.2 1.5,-0.3 2.2,0.9 2.3,4.1 7,1.7 8,7.1 0.8,4.8 5.4,10.3 4.1,14.9 -1.6,5.4 -3.1,10.7 -4.5,16.1 -1.2,4.7 -5.2,9.8 -2.5,14.4 3.2,5.5 -5.2,4.5 -6.5,14.2 -0.1,0.9 -0.3,1.7 -1.1,2.1 -2.1,1.3 -2.9,3.8 -5,5 -0.3,0.2 -0.5,0.7 -0.6,1.1 -1.2,6 -6.9,7.3 -14.5,16.9 -1.8,2.3 -9.6,3.7 -13.5,14.4 -0.4,1 -0.6,2.2 -1.3,3.1 -1.9,-1.8 -4,-3.3 -5.2,-5.4 -0.8,-1.3 -2.1,-1.9 -3,-2.9 -0.8,-0.9 -0.9,0.9 -1.8,-0.3 v 0 c -2.6,-1.6 -5.5,-2.6 -8.5,-3 -4.2,-0.5 -3.9,-4.9 -4.6,-5.6 -4.3,-4.2 -8,-13.7 -19.6,-18.5 -2.8,-1.2 -5.9,-1.3 -8.7,-2.7 -4.6,-2.4 -12,-2.9 -16.3,0.4 -6.7,5.2 -9.5,16.2 -8.9,21.2 -0.5,-0.7 -0.8,-1 -1.1,-1.3 0.1,0.9 0.3,1.7 0.5,2.6 1,1 10,4.9 5.7,8.5 -0.8,0.6 -1.9,1 -2.2,2.3 1,0.1 1.3,-0.9 2.1,-0.8 v -0.1 0.1 c -12.6,17.1 -12.5,13.1 -14.5,15.1 -0.2,0.8 -0.7,1.6 -1.3,2.2 l 0.2,0.2 c -0.4,1.1 -1.3,1.6 -2.3,2.1 -0.5,0.8 -0.9,1.7 -1.3,2.6 0.4,0.5 0,0.8 -0.8,2.1 -0.6,1.8 -1.2,3.6 -2,5.4 0.3,0 0.3,0.4 0.2,0.6 -0.7,1.7 -0.3,3.5 -0.7,5.1 -2.1,8.5 -1,16.8 -1,17.3 0.1,11.9 0.3,7.3 1.3,14.3 0.1,0.7 -0.1,2.1 1.5,1.2 0.1,-0.1 0.4,0.1 0.3,0.2 -0.4,1.5 2,2.3 1,4 -0.1,0.2 0.2,0.6 0.3,0.9 2.1,3.2 2.8,6.9 3.5,10.6 1.2,6.4 -8.1,31.3 -11.7,38.5 l 0.3,0.3 c 4.9,-6.5 10,-25.2 10.7,-27.7 0.2,-0.8 0.1,-1.8 1.1,-2.6 0,0.5 -0.6,11.4 -1.8,15.7 1.1,-0.2 1.7,-0.9 2.1,-2 2.1,-6.4 3.7,-12.9 4.4,-19.6 0.1,-1.3 1.2,-2.9 -0.6,-4 -0.3,-1 -3.2,-11.1 -3,-12 2.7,1.5 2.3,4.7 3.7,7.3 0.6,-2.2 -0.7,-4.1 -0.2,-6.1 2.3,2.3 2.6,5.4 0.9,15 1.7,-3.4 1.3,-6.9 2,-10.3 1.8,2.5 3.4,4.8 5.8,6.2 0.6,0.3 1.2,0.6 1.3,1.4 0.1,0.8 0,1.5 1.1,0.7 0.4,-0.2 3,2.1 2.8,2.5 -0.8,1.8 0.8,1.8 1.5,1.7 2.3,-0.1 4.6,0.6 6.9,0.7 7,0.2 5.7,2.5 7.2,3 2.2,0.7 5.5,7.5 6.5,11.2 1.1,4.3 4.6,4.4 8.5,2.7 3.7,-1.6 2.4,1 7.3,3.9 2.9,1.7 6.4,1.2 9.3,2.8 0.2,0.1 0.5,0 0.7,0 6.4,-0.3 16.2,9.2 20.3,-5.1 3.6,-12.6 3.6,-12.4 3.9,-13.2 1.1,-2.5 3.7,4.2 3.9,5.8 0.9,6.4 0,12.2 1.9,20.1 9.3,37.8 4.9,37.8 5.1,54.7 0.1,17.2 8.3,75.8 6.8,91.2 -0.2,-2.4 0.3,-3.9 -1,-3.9 -0.9,0 -0.8,0.9 -0.9,1.6 0,1.3 -0.2,2.7 0,4 0.5,3.1 -1.5,8.6 -3.5,8.5 -0.5,0 -1,0.3 -1,0.9 0,1.5 -1.6,1.3 -4.9,2 -6.5,1.5 -3.9,2.1 -7.6,2.9 -15.3,3.4 0.5,3 -23.6,9.1 -5.7,1.4 -11.4,3.2 -17.1,4.8 -3,0.9 -3,1 -2.2,4 0.5,2 1.6,1 3.3,1.8 5.3,2.5 6.3,0 8.5,0.7 2.2,0.8 2.9,-0.7 5.9,-0.3 5.7,0.8 17.2,-1.7 22.5,-2.8 8.4,-1.8 11.6,2.8 14.4,0.9 0.2,-0.1 0.7,0 1,0.1 2.3,0.9 4.4,0.4 6.5,-0.5 3.9,-1.7 6.7,3.2 12.1,-0.3 1.7,-1.2 42.5,-3.5 44.6,-3.6 0.9,0 1.9,-0.1 2.4,-1 5.8,-12 -1,-5.5 1.4,-24.1 0.1,-0.7 0.4,-1.8 -0.3,-2.1 -1.8,-0.7 -1.1,-2 -1,-3.1 0.2,-2.2 13.2,-62.9 13.8,-78.6 0.7,-17.6 -0.3,-2.4 1.6,-19.5 1.6,-14.3 -1.8,-11.8 -3.2,-32.8 -0.9,-14.3 -1.5,-15.2 -1.3,-18.4 0.1,-0.8 0.1,-1.6 -0.1,-2.5 -2.4,-10.1 0.7,-35.9 -2.8,-57 -1.4,-8.6 -3.2,-9 -0.1,-9.6 1.6,-0.3 8.1,-0.9 12.4,-2.7 0.6,-0.3 1.3,-0.4 1.9,-0.4 2.7,0 5.3,-0.7 7.9,-0.9 2.3,-0.2 4.1,-1.1 5.4,-3.1 3.7,-5.6 6.9,-3 11.2,-9.6 1.9,-2.9 5.3,-3.9 8.1,-11.5 2.9,-7.9 6.6,-14.4 4.4,-23.8 -1.4,-6.2 0.9,-7.8 1.1,-10.5 1,-10.6 13.4,-21.5 8.5,-46 -1,-4.9 -20.8,-66.2 -21,-66.7 -0.2,-0.5 0,-1 0.3,-1.4 1.6,-1.6 0.8,-3 -0.2,-4.5 -1.4,-2 -0.5,1.4 -1.8,-7 -0.2,-1 -0.4,-2.1 0.3,-3.2 5.1,1.6 10.3,0.6 12.4,0.8 110.7,8.8 117.8,-6 123,-25.6 0.7,-2.6 1.4,-5.1 1.4,-7.8 0.8,-22 -19.4,-31.5 -23.6,-35 z M 254.6,434.1 c 0,-0.2 0.2,-0.4 0.4,-0.5 0,0.3 -0.2,0.4 -0.4,0.5 z m 0.6,-0.6 c 0.2,-0.2 0.4,-0.3 0.6,-0.5 0,0.6 -0.3,0.5 -0.6,0.5 z m 139.6,254.1 c -2.5,2.8 3.9,3.3 1,4.9 -1,0.5 0,1.9 -1.2,2.2 -0.9,0.2 -1.9,0.3 -2.6,0.8 -3.9,3 -8.6,2 -7.8,-4.2 8.1,-63.6 10.5,-69.4 9.3,-86 -1.1,-15.9 2.1,-12.2 -0.5,-28.1 -2.8,-16.9 -1,3.4 -2.8,-19 -1.9,-22.2 -2.7,-19.7 -2.4,-25.3 0.2,-3.8 -0.7,-4 -0.6,-5.9 1.5,-14.2 0.1,-26.7 -2.6,-36.8 0.7,0.8 8,11.1 8.8,17.9 0.1,0.4 4.6,52.3 4.9,56.9 0.4,7.5 -6.2,27.1 -1.7,45.8 0,0 2.3,27.3 2.2,25.1 0.2,10.1 -0.9,48.3 -4,51.7 z"
   id="path1-2"
   style="fill:#33425b;fill-opacity:1" />
	<path
   d="m 384.6,490.1 v 0.1 c 0,0.1 -0.1,0.1 0,-0.1 z"
   id="path2"
   style="fill:#33425b;fill-opacity:1" />
	<path
   d="m 243.2,539.3 c -0.1,0.7 -0.6,1 -1.2,1.3 v 0 c 0.4,-0.5 0.4,-1.2 0.9,-1.6 0.1,0.1 0.2,0.2 0.3,0.3 z"
   id="path3"
   style="fill:#33425b;fill-opacity:1" />
	<path
   d="m 252.5,525 c 0.3,-0.1 0.5,-0.2 0.8,-0.3 0,0 0,0 0,0 -0.4,0.1 -0.6,0.2 -0.8,0.3 z"
   id="path4"
   style="fill:#33425b;fill-opacity:1" />
	<path
   d="m 252.4,525 c 0,0 0.1,0 0,0 0.1,0 0,0 0,0 z"
   id="path5"
   style="fill:#33425b;fill-opacity:1" />
	<path
   d="m 331.6,413.6 0.1,-0.1 c 0,0.1 0,0.1 -0.1,0.1 z"
   id="path6"
   style="fill:#33425b;fill-opacity:1" />
	<path
   d="m 242,540.6 v 0.1 z"
   id="path7"
   style="fill:#33425b;fill-opacity:1" />
</g></g></svg>
